<?xml version="1.0" encoding="iso-8859-1"?>
<!-- Generator: Adobe Illustrator 15.0.0, SVG Export Plug-In  -->
<!DOCTYPE svg PUBLIC "-//W3C//DTD SVG 1.1//EN" "http://www.w3.org/Graphics/SVG/1.1/DTD/svg11.dtd" [
	<!ENTITY ns_flows "http://ns.adobe.com/Flows/1.0/">
]>
<svg version="1.1"
	 xmlns="http://www.w3.org/2000/svg" xmlns:xlink="http://www.w3.org/1999/xlink" xmlns:a="http://ns.adobe.com/AdobeSVGViewerExtensions/3.0/"
	 x="0px" y="0px" width="512" height="512" viewBox="-225 -247.8 595 842" enable-background="new -225 -247.8 595 842"
	 xml:space="preserve">
<defs>
</defs>
<g>
	<path fill="#62AD89" d="M23.1,21.1c0-3.2,1-5.8,3.1-7.9c2.1-2.1,5-3.1,8.8-3.1c3.8,0,6.8,1,8.8,3.1c2.1,2.1,3.1,4.7,3.1,7.9v2.8
		c0,3.2-1,5.8-3.1,7.9c-2.1,2.1-5,3.1-8.8,3.1c-3.8,0-6.7-1-8.8-3.1c-2.1-2.1-3.1-4.7-3.1-7.8V21.1z M36.7,60.2l-5.7-2.9l26-41.7
		l5.7,2.9L36.7,60.2z M31,23.9c0,1.2,0.3,2.2,1,3.1c0.7,0.8,1.7,1.2,3,1.2c1.2,0,2.2-0.4,2.9-1.2c0.7-0.8,1-1.8,1-3.1v-2.8
		c0-1.2-0.3-2.3-1-3.1c-0.7-0.8-1.7-1.3-2.9-1.3c-1.2,0-2.2,0.4-2.9,1.3c-0.7,0.8-1,1.9-1,3.1V23.9z M48.4,51.1c0-3.1,1-5.8,3.1-7.9
		c2.1-2.1,5-3.1,8.8-3.1c3.8,0,6.8,1,8.8,3.1c2,2.1,3.1,4.7,3.1,7.9v2.8c0,3.2-1,5.8-3.1,7.9c-2,2.1-4.9,3.1-8.7,3.1
		c-3.8,0-6.8-1-8.8-3.1c-2.1-2.1-3.1-4.7-3.1-7.9V51.1z M56.3,53.9c0,1.2,0.4,2.2,1.2,3c0.8,0.9,1.7,1.3,2.9,1.3
		c1.5,0,2.5-0.4,3.1-1.1c0.5-0.8,0.8-1.8,0.8-3.2v-2.8c0-1.2-0.3-2.2-1-3.1c-0.7-0.8-1.7-1.3-2.9-1.3c-1.3,0-2.2,0.4-2.9,1.3
		c-0.7,0.8-1,1.9-1,3.1V53.9z"/>
</g>
<g>
	<path fill="#666666" d="M2.5,113.6v-27h9.4c3.3,0,6,1.1,8.2,3.2c2.1,2.1,3.2,4.8,3.2,8.1v4.5c0,3.3-1.1,6-3.2,8.1
		c-2.1,2.1-4.9,3.1-8.2,3.1H2.5z M7.9,90.8v18.7h4c1.8,0,3.2-0.7,4.3-2c1.1-1.3,1.6-3,1.6-5.1v-4.5c0-2.1-0.5-3.8-1.6-5.1
		c-1.1-1.3-2.5-2-4.3-2H7.9z"/>
	<path fill="#666666" d="M35.9,114c-3,0-5.3-0.9-7-2.8c-1.7-1.8-2.5-4.2-2.5-7.1v-0.7c0-3,0.8-5.5,2.4-7.4c1.6-1.9,3.9-2.9,6.7-2.9
		c2.7,0,4.8,0.8,6.2,2.5c1.4,1.7,2.2,3.9,2.2,6.7v2.8H32l-0.1,0.1c0.1,1.4,0.5,2.5,1.3,3.3c0.7,0.9,1.9,1.3,3.3,1.3
		c1.2,0,2.2-0.1,3.1-0.4c0.8-0.2,1.7-0.6,2.6-1.1l1.5,3.3c-0.8,0.7-1.9,1.2-3.3,1.7S37.5,114,35.9,114z M35.6,97.3
		c-1.1,0-1.9,0.4-2.5,1.1c-0.6,0.7-0.9,1.7-1.1,3l0,0.1h6.6v-0.4c0-1.2-0.2-2.1-0.7-2.8C37.4,97.7,36.6,97.3,35.6,97.3z"/>
	<path fill="#666666" d="M58.9,113.6c-0.2-0.5-0.4-0.9-0.5-1.4c-0.1-0.5-0.2-1-0.3-1.6c-0.6,1-1.3,1.8-2.2,2.4c-0.9,0.6-2,1-3.3,1
		c-2.1,0-3.7-0.5-4.9-1.6c-1.1-1.1-1.7-2.6-1.7-4.4c0-2,0.8-3.5,2.3-4.6c1.5-1.1,3.7-1.6,6.6-1.6h3v-1.6c0-1-0.3-1.7-0.8-2.2
		c-0.5-0.5-1.3-0.8-2.3-0.8c-0.9,0-1.6,0.2-2,0.6c-0.5,0.4-0.7,1-0.7,1.8H47l0-0.1c-0.1-1.7,0.7-3.2,2.2-4.4
		c1.6-1.2,3.6-1.8,6.1-1.8c2.4,0,4.4,0.6,5.9,1.8c1.5,1.2,2.2,3,2.2,5.2v8.3c0,0.9,0.1,1.8,0.2,2.7c0.1,0.8,0.4,1.7,0.7,2.5H58.9z
		 M54,110c0.9,0,1.8-0.2,2.5-0.7c0.7-0.5,1.2-1,1.5-1.6v-2.8h-3c-1.2,0-2,0.3-2.6,0.9c-0.6,0.6-0.9,1.3-0.9,2.1
		c0,0.7,0.2,1.2,0.7,1.6C52.6,109.8,53.2,110,54,110z"/>
	<path fill="#666666" d="M73.2,113.6h-5.4V84.7h5.4V113.6z"/>
	<path fill="#666666" d="M88.5,108.1c0-0.6-0.3-1.1-0.9-1.5c-0.6-0.4-1.6-0.8-3.2-1.1c-2.4-0.5-4.1-1.2-5.4-2.1
		c-1.2-1-1.8-2.2-1.8-3.9c0-1.7,0.7-3.2,2.2-4.4c1.5-1.2,3.4-1.8,5.8-1.8c2.5,0,4.6,0.6,6.1,1.8c1.5,1.2,2.3,2.7,2.2,4.5l0,0.1h-5.2
		c0-0.8-0.3-1.5-0.8-2c-0.5-0.5-1.3-0.8-2.2-0.8c-0.9,0-1.6,0.2-2.1,0.6c-0.5,0.4-0.8,1-0.8,1.6c0,0.6,0.3,1.1,0.8,1.5
		c0.5,0.4,1.6,0.7,3.2,1c2.5,0.5,4.3,1.2,5.5,2.2c1.2,1,1.8,2.3,1.8,4c0,1.8-0.8,3.3-2.3,4.4c-1.5,1.2-3.6,1.7-6.1,1.7
		c-2.7,0-4.8-0.7-6.3-2c-1.6-1.4-2.3-2.9-2.2-4.6l0-0.1h5c0,1.1,0.4,1.9,1.1,2.3s1.5,0.7,2.6,0.7c1,0,1.8-0.2,2.3-0.6
		C88.2,109.3,88.5,108.7,88.5,108.1z"/>
</g>
</svg>
